<svg xmlns="http://www.w3.org/2000/svg" width="103" height="38" viewBox="0 0 103 38"><g transform="translate(-360 -13)"><path d="M.653,0V-2.048L2.476-2.4V-14.646L.653-15v-2.059H8.236a8.157,8.157,0,0,1,4.7,1.172,3.982,3.982,0,0,1,1.69,3.5A3.686,3.686,0,0,1,14-10.275a3.811,3.811,0,0,1-1.821,1.4,3.888,3.888,0,0,1,1.7.783A3.578,3.578,0,0,1,14.9-6.72a4.425,4.425,0,0,1,.343,1.751A4.415,4.415,0,0,1,13.63-1.262,7.3,7.3,0,0,1,9.05,0ZM5.9-2.622H9.05a3.161,3.161,0,0,0,2.072-.6,2.148,2.148,0,0,0,.714-1.75,3.335,3.335,0,0,0-.268-1.415,1.844,1.844,0,0,0-.825-.87,3.046,3.046,0,0,0-1.435-.3H5.9Zm0-7.3H8.357a3.432,3.432,0,0,0,2.111-.562,1.931,1.931,0,0,0,.739-1.638,2.048,2.048,0,0,0-.748-1.75,3.668,3.668,0,0,0-2.222-.563H5.9ZM21.865.246a4,4,0,0,1-3.143-1.274,5.8,5.8,0,0,1-1.138-3.952v-5.284l-1.4-.357V-12.68h4.817v7.724a3.153,3.153,0,0,0,.471,1.947,1.729,1.729,0,0,0,1.44.592,2.933,2.933,0,0,0,1.339-.3,2.485,2.485,0,0,0,.96-.856v-6.7l-1.5-.357V-12.68h4.926V-2.4l1.533.357V0H25.638l-.225-1.607a4.155,4.155,0,0,1-1.5,1.375A4.286,4.286,0,0,1,21.865.246Zm15,0a12.318,12.318,0,0,1-2.64-.269,12.053,12.053,0,0,1-2.349-.772l-.038-3.59h2.382l.455,1.831a4.32,4.32,0,0,0,.877.313,4.573,4.573,0,0,0,1.081.116A2.648,2.648,0,0,0,38.249-2.5a1.148,1.148,0,0,0,.465-.931,1.189,1.189,0,0,0-.5-.939,4.962,4.962,0,0,0-1.979-.7,6.935,6.935,0,0,1-3.319-1.456,3.281,3.281,0,0,1-1.066-2.52,3.6,3.6,0,0,1,.533-1.922,3.745,3.745,0,0,1,1.632-1.4,6.473,6.473,0,0,1,2.8-.528,11.58,11.58,0,0,1,2.626.278,7.868,7.868,0,0,1,2,.72l.038,3.465H39.1l-.361-1.659a2.387,2.387,0,0,0-.749-.353,3.532,3.532,0,0,0-.964-.121,2.244,2.244,0,0,0-1.38.367,1.125,1.125,0,0,0-.482.933,1.169,1.169,0,0,0,.172.614,1.565,1.565,0,0,0,.672.53,7.082,7.082,0,0,0,1.465.467,8.323,8.323,0,0,1,3.43,1.43,3.085,3.085,0,0,1,1.078,2.512A3.576,3.576,0,0,1,40.7-.845,5.8,5.8,0,0,1,36.863.246ZM43.456,0V-2.048L45.28-2.4V-14.646L43.456-15v-2.059H56.7v4.608H54.078l-.157-1.973H48.7v4.29h5.772V-7.5H48.7v4.875h5.5l.157-2.037h2.6V0ZM59.125,0V-2.048L60.768-2.4v-7.859l-1.816-.357V-12.68h5l.134,1.574.023.281a3.949,3.949,0,0,1,1.157-1.563,2.657,2.657,0,0,1,1.659-.526,4.877,4.877,0,0,1,.661.05,4.2,4.2,0,0,1,.65.138l-.37,3.149-1.7-.087a2.01,2.01,0,0,0-1.177.243,2.613,2.613,0,0,0-.8.809V-2.4l1.643.357V0ZM69.509,0V-2.048L71.151-2.4v-7.859l-1.816-.357V-12.68h5l.134,1.574.023.281a3.949,3.949,0,0,1,1.157-1.563,2.657,2.657,0,0,1,1.659-.526,4.877,4.877,0,0,1,.661.05,4.2,4.2,0,0,1,.65.138l-.37,3.149-1.7-.087a2.01,2.01,0,0,0-1.177.243,2.613,2.613,0,0,0-.8.809V-2.4l1.643.357V0ZM85.448.246a6.079,6.079,0,0,1-3.224-.819,5.386,5.386,0,0,1-2.06-2.278,7.534,7.534,0,0,1-.717-3.363v-.243A7.476,7.476,0,0,1,80.163-9.8a5.461,5.461,0,0,1,2.057-2.284,5.974,5.974,0,0,1,3.2-.828,6.008,6.008,0,0,1,3.217.825A5.447,5.447,0,0,1,90.7-9.811a7.49,7.49,0,0,1,.717,3.354v.243a7.527,7.527,0,0,1-.717,3.36A5.415,5.415,0,0,1,88.644-.574,5.984,5.984,0,0,1,85.448.246Zm0-2.622A2.153,2.153,0,0,0,86.9-2.856,2.837,2.837,0,0,0,87.732-4.2,6.709,6.709,0,0,0,88-6.214v-.243a6.591,6.591,0,0,0-.272-1.987,2.862,2.862,0,0,0-.842-1.349,2.173,2.173,0,0,0-1.466-.488,2.155,2.155,0,0,0-1.454.488,2.825,2.825,0,0,0-.836,1.349,6.726,6.726,0,0,0-.267,1.987v.243a6.875,6.875,0,0,0,.267,2.02,2.748,2.748,0,0,0,.838,1.342A2.225,2.225,0,0,0,85.448-2.375ZM93.192,0V-2.048L94.834-2.4v-7.859l-1.816-.357V-12.68h5l.134,1.574.023.281a3.949,3.949,0,0,1,1.157-1.563,2.657,2.657,0,0,1,1.659-.526,4.877,4.877,0,0,1,.661.05,4.2,4.2,0,0,1,.65.138l-.37,3.149-1.7-.087a2.01,2.01,0,0,0-1.177.243,2.613,2.613,0,0,0-.8.809V-2.4l1.643.357V0Z" transform="translate(360 42)" fill="#EBEBEB"/></g></svg>